HIERARCHY
ROOT Hips
{
	OFFSET	0.00	0.00	0.00
	CHANNELS 6 Xposition Yposition Zposition Zrotation Xrotation Yrotation
	JOINT Spine
	{
		OFFSET	 0.00	0.01	 0.00
		CHANNELS 3 Zrotation Xrotation Yrotation
		JOINT Spine1
		{
			OFFSET	 0.00	 2.45913012437421	 0.00
			CHANNELS 3 Zrotation Xrotation Yrotation
            JOINT Neck
            {
                OFFSET	 0.00	 2.48462964506057	 0.00
                CHANNELS 3 Zrotation Xrotation Yrotation
                JOINT Head
                {
                    OFFSET	 0.00	 0.927524780924562	 0.00
                    CHANNELS 3 Zrotation Xrotation Yrotation
                    End Site 
                    {
                        OFFSET	 0.00	 1.14999962169752	 0.00
                    }
                }
            }
			JOINT LeftShoulder
			{
				OFFSET	 0.00	 2.48462964506057	 0.00
				CHANNELS 3 Zrotation Xrotation Yrotation
				JOINT LeftUpArm
				{
					OFFSET	 0.00	 1.24881979654096	 0.00
					CHANNELS 3 Zrotation Xrotation Yrotation
					JOINT LeftForeArm
					{
						OFFSET	 0.00	2.59758046908119	 0.00
						CHANNELS 3 Zrotation Xrotation Yrotation
						JOINT LeftHand
						{
							OFFSET	 0.00	2.45542024364365	 0.00
							CHANNELS 3 Zrotation Xrotation Yrotation
							JOINT LeftHandThumb 
							{
								OFFSET	 0.00	0.00	 0.00
								CHANNELS 3 Zrotation Xrotation Yrotation
								End Site
								{
									OFFSET	 0.00	0.00	1.00000003353624
								}
							}
							JOINT L_Wrist_End 
							{
								OFFSET	 0.00	0.99999967115358	 0.00
								CHANNELS 3 Zrotation Xrotation Yrotation
								End Site 
								{
									OFFSET	 0.00	 0.00	 0.00
								}
							}
						}
					}
				}
			}
			JOINT RightShoulder
			{
				OFFSET	 0.00	 2.48462964506057	 0.00
				CHANNELS 3 Zrotation Xrotation Yrotation
				JOINT RightUpArm
				{
					OFFSET	 0.00	 1.24881979654096	 0.00
					CHANNELS 3 Zrotation Xrotation Yrotation
					JOINT RightForeArm
					{
						OFFSET	 0.00	2.59758046908119	 0.00
						CHANNELS 3 Zrotation Xrotation Yrotation
						JOINT RightHand
						{
							OFFSET	 0.00	2.45542024364365	 0.00
							CHANNELS 3 Zrotation Xrotation Yrotation
							JOINT RightHandThumb 
							{
								OFFSET	 0.00	0.00	 0.00
								CHANNELS 3 Zrotation Xrotation Yrotation
								End Site
								{
									OFFSET	 0.00	0.00	1.00000003353624
								}
							}
							JOINT R_Wrist_End 
							{
								OFFSET	 0.00	0.99999967115358	 0.00
								CHANNELS 3 Zrotation Xrotation Yrotation
								End Site 
								{
									OFFSET	 0.00	 0.00	 0.00
								}
							}
						}
					}
				}
			}
		}
	}
	JOINT LeftUpLeg
	{
		OFFSET	 1.2719394002717	 0.00	 0.00
		CHANNELS 3 Zrotation Xrotation Yrotation
		JOINT LeftLowLeg
		{
			OFFSET	 0.00	-4.3429100912261	 0.00
			CHANNELS 3 Zrotation Xrotation Yrotation
			JOINT LeftFoot
			{
				OFFSET	 0.00	-4.48767017425826	 0.00
				CHANNELS 3 Zrotation Xrotation Yrotation
				JOINT LeftToeBase
                {
                    OFFSET	 0.00	0.00	 1.51507020887566
                    CHANNELS 3 Zrotation Xrotation Yrotation
                    End Site 
                    {
                        OFFSET	 0.00	0.00	 0.75000010571191
                    }
                }
			}
		}
	}
	JOINT RightUpLeg
	{
		OFFSET	 -1.2719393604653	 0.00	 0.00
		CHANNELS 3 Zrotation Xrotation Yrotation
		JOINT RightLowLeg
		{
			OFFSET	 0.00	-4.3429100912261	 0.00
			CHANNELS 3 Zrotation Xrotation Yrotation
			JOINT RightFoot
			{
				OFFSET	 0.00	-4.48767017425826	 0.00
				CHANNELS 3 Zrotation Xrotation Yrotation
				JOINT RightToeBase
                {
                    OFFSET	 0.00	0.00	 1.51507020887566
                    CHANNELS 3 Zrotation Xrotation Yrotation
                    End Site 
                    {
                        OFFSET	 0.00	0.00	 0.749999965609858
                    }
                }   
			}
		}
	}
}
MOTION 
Frames:	18 
Frame Time: 0.02 
 -0.0985000991821289 7.998189697265625 10.493299560546875 -62.1609 85.8686 63.6616 4.79941 -22.392 -2.18367 0.198254 38.2452 -0.809679 -5.37802 29.3254 3.52566 20.9988 -67.384 15.6657 -118.2425 3.58565 -7.135 -36.4173 0.0228154 36.2668 0.0 28.2285 0.0 8.22683 -6.63478 1.85148 0.0 0.0 0.0 0.0 0.0 0.0 117.5703 1.30746 -0.0810931 38.5447 8.36088 -23.5636 0.0 29.3871 0.0 -5.52656 -2.28592 8.5873 0.0 0.0 0.0 0.0 0.0 0.0 5.13058 10.65 22.1739 0.0 0.81906 0.0 -10.2039 8.97267 5.96971 0.0 -9.940371 0.0 9.9318 5.87355 12.2532 0.0 6.98951 0.0 17.5448 6.19343 -26.6569 0.0 -8.76527 0.0 
  -0.09860549926757813 7.99447021484375 10.49280029296875 -61.8888 85.854 63.4684 4.78243 -22.453 -2.15427 0.163961 38.2479 -0.756928 -5.42816 29.42 3.55104 20.9492 -67.3433 15.5553 -118.2698 3.41874 -6.99893 -36.4754 -0.218529 36.1855 0.0 27.7465 0.0 8.06695 -6.68894 1.34189 0.0 0.0 0.0 0.0 0.0 0.0 117.5731 1.254 -0.1263 38.5381 8.29231 -23.6947 0.0 28.9787 0.0 -5.69755 -1.93953 8.13337 0.0 0.0 0.0 0.0 0.0 0.0 5.15321 10.6853 22.1538 0.0 0.805595 0.0 -10.3608 8.90668 5.86271 0.0 -9.769239 0.0 9.9487 5.87396 12.1409 0.0 7.0717 0.0 17.5539 6.1599197 -26.6002 0.0 -8.78969 0.0 
  -0.10059100151062011 7.990570068359375 10.4922998046875 -60.8103 85.8131 62.4793 4.77074 -22.465 -2.08131 0.0871909 38.2863 -0.672852 -5.35765 29.4843 3.46946 20.8837 -67.2858 15.4909 -118.2322 3.28173 -7.0498 -36.535 -0.568746 36.11 0.0 27.4126 0.0 7.76025 -6.82371 1.71584 0.0 0.0 0.0 0.0 0.0 0.0 117.6138 1.25021 -0.080675 38.5577 8.05856 -23.5418 0.0 28.6714 0.0 -5.46059 -2.07045 8.21264 0.0 0.0 0.0 0.0 0.0 0.0 5.18954 10.7494 21.9768 0.0 0.864532 0.0 -10.2285 8.910049 5.97075 0.0 -9.939119 0.0 9.97902 5.94922 12.076 0.0 7.13481 0.0 17.5629 6.11761 -26.6157 0.0 -8.79585 0.0 
  -0.1030150032043457 7.987039794921875 10.491700439453124 -59.9419 85.7854 61.7555 4.71594 -22.4878 -2.04445 0.0788837 38.2993 -0.54642 -5.34876 29.5965 3.4133 20.8423 -67.278 15.3587 -118.2534 3.1948 -7.11106 -36.5256 -0.914542 36.0068 0.0 27.1919 0.0 7.57225 -6.91773 1.62814 0.0 0.0 0.0 0.0 0.0 0.0 117.6065 1.16947 -0.132319 38.6133 7.92156 -23.305 0.0 28.3047 0.0 -5.20655 -2.30793 8.27238 0.0 0.0 0.0 0.0 0.0 0.0 5.23016 10.786 21.7527 0.0 0.907145 0.0 -10.3718 8.8008995 6.02344 0.0 -9.7599 0.0 10.0115 6.00764 12.0136 0.0 7.19165 0.0 17.5699 6.0589504 -26.6647 0.0 -8.824591 0.0 
  -0.1061989974975586 7.984089965820313 10.491099853515625 -58.8105 85.761 60.815 4.65291 -22.4965 -2.01729 0.043129 38.3426 -0.445517 -5.24448 29.6263 3.26126 20.7365 -67.2815 15.272 -118.2384 3.07253 -7.14422 -36.5012 -1.15701 35.9006 0.0 27.0535 0.0 7.44894 -6.97329 1.32983 0.0 0.0 0.0 0.0 0.0 0.0 117.6155 1.11003 -0.120093 38.6738 7.75324 -23.1432 0.0 27.8894 0.0 -5.08348 -2.12742 8.31981 0.0 0.0 0.0 0.0 0.0 0.0 5.27071 10.8198 21.711 0.0 0.949501 0.0 -10.2039 8.86792 5.92732 0.0 -9.93401 0.0 10.0367 6.08778 11.9161 0.0 7.22783 0.0 17.6139 5.9781 -26.7102 0.0 -8.827641 0.0 
  -0.110423002243042 7.981099853515625 10.490400390625 -57.4067 85.7328 59.6268 4.54123 -22.4709 -2.03999 0.0511754 38.3365 -0.338834 -5.30453 29.7418 3.29043 20.7457 -67.3002 15.2174 -118.274 2.97246 -7.18012 -36.4115 -1.4191 35.804 0.0 27.0061 0.0 7.45019 -6.97117 1.15902 0.0 0.0 0.0 0.0 0.0 0.0 117.6177 1.04106 -0.110095 38.7206 7.59697 -23.3186 0.0 27.3984 0.0 -5.23518 -1.98428 9.11587 0.0 0.0 0.0 0.0 0.0 0.0 5.32254 10.8473 21.6052 0.0 1.03396 0.0 -10.3195 8.799009 5.80646 0.0 -9.7791195 0.0 10.0656 6.20915 11.8816 0.0 7.22162 0.0 17.6359 5.8863 -26.8492 0.0 -8.82719 0.0 
  -0.11494099617004394 7.97833984375 10.48989990234375 -56.0937 85.7367 58.5788 4.48517 -22.4871 -1.9629 -0.0722508 38.3675 -0.222845 -5.1384 29.8064 3.12331 20.7584 -67.2706 15.2148 -118.208405 2.86855 -7.16205 -36.3207 -1.53689 35.7056 0.0 27.0495 0.0 7.53004 -7.07123 1.01143 0.0 0.0 0.0 0.0 0.0 0.0 117.6337 0.978347 -0.0704171 38.8447 7.34786 -23.3311 0.0 26.9977 0.0 -4.90782 -2.44313 7.91011 0.0 0.0 0.0 0.0 0.0 0.0 5.35817 10.8271 21.3709 0.0 1.13926 0.0 -10.2861 8.7868 5.81114 0.0 -9.7903805 0.0 10.0796 6.31112 11.8763 0.0 7.21061 0.0 17.6754 5.75548 -27.0538 0.0 -8.817551 0.0 
  -0.11934200286865235 7.975560302734375 10.4893994140625 -54.5811 85.7211 57.3392 4.44361 -22.4768 -1.88823 -0.181684 38.39 -0.122019 -5.07076 29.8851 3.06553 20.802 -67.2371 15.2153 -118.14 2.7714 -7.23833 -36.2263 -1.67694 35.6433 0.0 27.1078 0.0 7.6062 -7.01889 0.994851 0.0 0.0 0.0 0.0 0.0 0.0 117.6889 0.878819 -0.163314 38.9223 7.2388 -23.123 0.0 26.6618 0.0 -4.52635 -2.69442 8.08916 0.0 0.0 0.0 0.0 0.0 0.0 5.40038 10.8348 21.2026 0.0 1.22704 0.0 -10.2715 8.786369 5.73659 0.0 -9.77802 0.0 10.0911 6.44995 11.6902 0.0 7.15793 0.0 17.671 5.69831 -27.1299 0.0 -8.80344 0.0 
  -0.12546999931335448 7.973980102539063 10.48949951171875 -53.7373 85.7335 56.7766 4.36875 -22.5104 -1.85351 -0.276836 38.4111 -0.0309731 -5.03248 29.9823 3.06588 20.8539 -67.2002 15.3437 -118.072 2.64214 -7.31428 -36.1402 -1.74108 35.5647 0.0 27.2202 0.0 7.73291 -7.04907 1.00489 0.0 0.0 0.0 0.0 0.0 0.0 117.7275 0.877447 -0.205851 38.974 7.05259 -23.2404 0.0 26.274 0.0 -4.20919 -2.94848 7.20721 0.0 0.0 0.0 0.0 0.0 0.0 5.4625 10.7674 21.0096 0.0 1.33319 0.0 -10.2495 8.81098 5.66033 0.0 -9.8135605 0.0 10.1165 6.51477 11.5056 0.0 7.12094 0.0 17.6546 5.6630898 -27.2174 0.0 -8.80862 0.0 
  -0.13131400108337402 7.9731201171875 10.489300537109376 -52.6278 85.7335 55.9456 4.27785 -22.5046 -1.82994 -0.308591 38.4178 0.101144 -4.96276 30.0363 2.98446 20.7488 -67.1332 15.2874 -118.0318 2.63187 -7.47971 -36.055 -1.90586 35.4433 0.0 27.3644 0.0 7.83909 -7.09024 1.32138 0.0 0.0 0.0 0.0 0.0 0.0 117.7322 0.827524 -0.198423 39.0199 6.85519 -23.4074 0.0 25.9845 0.0 -4.29696 -2.87878 6.98578 0.0 0.0 0.0 0.0 0.0 0.0 5.52293 10.713 20.8407 0.0 1.45034 0.0 -10.2266 8.82006 5.5578 0.0 -9.80556 0.0 10.1472 6.56437 11.3983 0.0 7.159 0.0 17.6683 5.5672503 -27.3428 0.0 -8.80791 0.0 
  -0.1374590015411377 7.973209838867188 10.489000244140625 -51.4078 85.7332 55.0322 4.11606 -22.4666 -1.90862 -0.250744 38.3853 0.211453 -5.0869 30.1484 3.083 20.748 -67.1368 15.2099 -118.066605 2.5709 -7.58809 -35.9539 -1.96198 35.3465 0.0 27.5273 0.0 8.12257 -7.0527 -0.104204 0.0 0.0 0.0 0.0 0.0 0.0 117.6996 0.790815 -0.23037 39.0294 6.68344 -23.4533 0.0 25.7499 0.0 -3.87309 -2.97698 6.9672 0.0 0.0 0.0 0.0 0.0 0.0 5.58016 10.6714 20.4889 0.0 1.53179 0.0 -10.2321 8.82802 5.58371 0.0 -9.80742 0.0 10.1762 6.6086 11.1663 0.0 7.20107 0.0 17.6664 5.4897404 -27.4096 0.0 -8.7914505 0.0 
  -0.1423390007019043 7.973289794921875 10.488599853515625 -50.8327 85.7429 54.6592 4.06807 -22.4711 -1.87089 -0.28903 38.3851 0.308801 -5.09195 30.1701 3.07974 20.7233 -67.1093 15.1453 -118.0379 2.55116 -7.64238 -35.8839 -1.94936 35.2419 0.0 27.6588 0.0 8.18045 -6.99391 -0.245479 0.0 0.0 0.0 0.0 0.0 0.0 117.6617 0.742922 -0.227788 39.1169 6.5789 -23.5621 0.0 25.5592 0.0 -4.0796 -2.69893 7.9504 0.0 0.0 0.0 0.0 0.0 0.0 5.62049 10.63 20.3089 0.0 1.56874 0.0 -10.2362 8.84216 5.56248 0.0 -9.82339 0.0 10.199 6.61721 10.9271 0.0 7.22392 0.0 17.6162 5.4823503 -27.3921 0.0 -8.80025 0.0 
  -0.15031299591064454 7.973740234375 10.48760009765625 -49.9468 85.739 54.0446 3.98355 -22.4479 -1.85671 -0.313115 38.3673 0.420414 -5.15085 30.2333 3.09915 20.674 -67.1292 15.0661 -118.0347 2.55352 -7.56051 -35.7333 -1.87898 35.0307 0.0 27.9296 0.0 8.38324 -6.97393 -0.230065 0.0 0.0 0.0 0.0 0.0 0.0 117.6649 0.63324 -0.211668 39.1548 6.49665 -23.7487 0.0 25.398 0.0 -3.78002 -2.98728 6.57102 0.0 0.0 0.0 0.0 0.0 0.0 5.68871 10.6065 19.9084 0.0 1.58909 0.0 -10.2659 8.83621 5.64696 0.0 -9.79871 0.0 10.259 6.61245 10.8129 0.0 7.32196 0.0 17.6285 5.3664 -27.5136 0.0 -8.79929 0.0 
  -0.16145299911499023 7.968679809570313 10.48699951171875 -47.689 85.658 52.309 3.81052 -22.4371 -1.96927 -0.343308 38.4483 0.43314 -5.18745 30.2993 3.15645 20.6744 -67.0652 15.0601 -117.9506 2.49546 -7.65675 -35.6036 -1.84811 34.876 0.0 28.2683 0.0 8.55852 -6.89323 -0.0935317 0.0 0.0 0.0 0.0 0.0 0.0 117.662 0.62408 -0.294932 39.2097 6.36504 -23.8388 0.0 25.3116 0.0 -3.44835 -3.1355 6.6571 0.0 0.0 0.0 0.0 0.0 0.0 5.82604 10.7131 19.0908 0.0 1.5476 0.0 -10.3881 8.852221 5.79829 0.0 -9.799419 0.0 10.3654 6.77844 10.3917 0.0 7.36465 0.0 17.5745 5.31518 -27.6369 0.0 -8.86063 0.0 
  -0.17061599731445312 7.970150146484375 10.485799560546875 -46.6077 85.6547 51.5584 3.71228 -22.4213 -1.99162 -0.42414 38.5078 0.465326 -5.25373 30.2626 3.2446 20.7194 -67.06 15.0725 -117.8811 2.47487 -7.75661 -35.5094 -1.79831 34.6515 0.0 28.5714 0.0 8.78264 -6.80217 0.149047 0.0 0.0 0.0 0.0 0.0 0.0 117.6676 0.636989 -0.325767 39.2495 6.34697 -23.9433 0.0 25.1984 0.0 -3.38441 -2.94338 6.36343 0.0 0.0 0.0 0.0 0.0 0.0 5.91799 10.6739 18.4785 0.0 1.58917 0.0 -10.4872 8.82877 5.92632 0.0 -9.75386 0.0 10.4245 6.7483 10.1298 0.0 7.51807 0.0 17.5681 5.19096 -27.6514 0.0 -8.87127 0.0 
  -0.18164199829101563 7.972239990234375 10.484200439453126 -45.1298 85.6669 50.463 3.5129 -22.3861 -2.1136 -0.441842 38.5694 0.502472 -5.39817 30.2247 3.38426 20.7317 -67.0625 14.9815 -117.8422 2.43429 -7.7185 -35.3927 -1.62422 34.3778 0.0 28.9339 0.0 9.01026 -6.67208 0.351918 0.0 0.0 0.0 0.0 0.0 0.0 117.6982 0.593254 -0.406812 39.1912 6.49728 -24.0187 0.0 25.1736 0.0 -3.51688 -2.67485 8.08347 0.0 0.0 0.0 0.0 0.0 0.0 6.00438 10.6162 17.6933 0.0 1.65972 0.0 -10.6325 8.78985 6.15107 0.0 -9.73376 0.0 10.4808 6.72364 9.90252 0.0 7.68316 0.0 17.5237 5.01147 -27.7675 0.0 -8.85612 0.0 
  -0.19503299713134767 7.974439697265625 10.48260009765625 -43.1543 85.6673 48.8766 3.14867 -22.3103 -2.40307 -0.276424 38.6423 0.592948 -5.72708 30.1903 3.65363 20.707 -67.1085 14.7068 -117.8837 2.4393 -7.71016 -35.2918 -1.52548 34.0671 0.0 29.3546 0.0 9.3286 -6.55337 0.653255 0.0 0.0 0.0 0.0 0.0 0.0 117.6452 0.585375 -0.449997 39.112 6.65395 -24.027 0.0 25.0853 0.0 -2.75096 -3.07086 6.33077 0.0 0.0 0.0 0.0 0.0 0.0 6.08392 10.5985 16.8976 0.0 1.70855 0.0 -10.7876 8.78248 6.35672 0.0 -9.70247 0.0 10.5398 6.66817 9.67723 0.0 7.9633 0.0 17.5096 4.8156996 -27.858 0.0 -8.9304 0.0 
  -0.2115810012817383 7.978270263671875 10.481600341796875 -41.2575 85.659 47.3813 2.64813 -22.2191 -2.85438 0.0557391 38.7438 0.700493 -6.22367 30.1654 4.07492 20.6944 -67.1632 14.3265 -117.9823 2.41981 -7.81032 -35.2169 -1.49817 33.7219 0.0 29.8465 0.0 9.56253 -6.39695 0.686994 0.0 0.0 0.0 0.0 0.0 0.0 117.5773 0.640125 -0.476849 38.8782 6.85752 -23.9341 0.0 25.1784 0.0 -2.74588 -2.83246 8.21287 0.0 0.0 0.0 0.0 0.0 0.0 6.19583 10.5379 16.3495 0.0 1.80349 0.0 -10.9154 8.80517 6.34953 0.0 -9.6249 0.0 10.6373 6.59152 9.58045 0.0 8.25181 0.0 17.5462 4.597 -28.1263 0.0 -8.97117 0.0 
